PathFileType	4	(X/Y/Z)	Demo_SinglePerson_P1_0-412.trc
DataRate	CameraRate	NumFrames	NumMarkers	Units	OrigDataRate	OrigDataStartFrame	OrigNumFrames
29	29	6	22	m	29	51	412
Frame#	Time	Hip			RHip			RKnee			RAnkle			RBigToe			RSmallToe			RHeel			LHip			LKnee			LAnkle			LBigToe			LSmallToe			LHeel			Neck			Head			Nose			RShoulder			RElbow			RWrist			LShoulder			LElbow			LWrist			
		X1	Y1	Z1	X2	Y2	Z2	X3	Y3	Z3	X4	Y4	Z4	X5	Y5	Z5	X6	Y6	Z6	X7	Y7	Z7	X8	Y8	Z8	X9	Y9	Z9	X10	Y10	Z10	X11	Y11	Z11	X12	Y12	Z12	X13	Y13	Z13	X14	Y14	Z14	X15	Y15	Z15	X16	Y16	Z16	X17	Y17	Z17	X18	Y18	Z18	X19	Y19	Z19	X20	Y20	Z20	X21	Y21	Z21	X22	Y22	Z22	
51	1.7586206896551724	4.6408957163158355	-0.07097860549727861	-0.9446592488472929	4.749165367297979	-0.12104776568024736	-1.1125499367076115	4.247283818478424	-0.4923199002299654	-0.9845231686596698	3.829352895780163	-0.8061980285677302	-0.8293577389451865	3.904794658469504	-1.0064249565681078	-0.9230853138655861	4.0193897842212545	-1.0610589743737289	-1.0105157973020797	3.7216934655633436	-0.8129362327570926	-0.7593949467862519	4.529913438851073	-0.027271744097913574	-0.7714590020731746	3.888991698982845	-0.3188966071543081	-0.5762734773563223	3.4402976081491397	-0.5430875445908814	-0.4649294483152078	3.2801075929611203	-0.59272624585631	-0.40112586987867677	3.1995940870141295	-0.5338062764651431	-0.32274078409400464	3.425546441707873	-0.5818305098219494	-0.4789657305249751	5.570162554378317	0.5455344069902153	-1.204535979804747	5.978490967009689	0.8494673279577786	-1.3844359843080944	5.779838586941424	0.6728380651591107	-1.3455875759763318	5.491353582985475	0.3512996839877559	-1.420318669903935	5.528742813443158	0.11983748756798969	-1.7600602447430105	5.77798401572293	0.28298540594447696	-1.9321014645985157	5.294181552514593	0.478362669575224	-0.8379314635182255	4.871562950443825	0.330313215297814	-0.46913616449486906	5.091444423946167	0.4345724271015502	-0.5613237507917719
52	1.793103448275862	4.643509353054047	-0.07265086295299132	-0.9494112222294729	4.74417854522759	-0.12828510870174792	-1.115229034850621	4.2402274527469315	-0.49225916659566293	-0.9789961320958978	3.843515877824366	-0.829988187269402	-0.8458391618527145	3.9112638894128766	-1.0264214986984477	-0.9299324721768502	4.028255217779653	-1.0825959579967073	-1.0186471369135284	3.7358795585262214	-0.8370661161803143	-0.7754246763255392	4.526426022289545	-0.025558887197683927	-0.7653197220685658	3.8967494513426177	-0.3188149503747409	-0.5818312741718079	3.435757363550395	-0.538921221350404	-0.4596491110364392	3.285551224908221	-0.5957859813598155	-0.4058086413939206	3.2041412939494536	-0.5362709348364741	-0.32673624165726467	3.4317162259935925	-0.5846401477671402	-0.4841741590193677	5.577267843254953	0.5488619174285579	-1.2108554632966415	5.976252075174012	0.8497121367688404	-1.3783410848669597	5.787993817256028	0.6772972844016638	-1.3528530056680637	5.502996911094413	0.3506917295038514	-1.4389345970637089	5.529224466069328	0.11311593072599439	-1.7674691537551308	5.773698414933849	0.2801723216965699	-1.9289141308102746	5.292488520043415	0.4733424299879242	-0.8478881448810466	4.86429912331666	0.3266728529644454	-0.4673539677446177	5.083799716973335	0.43283449998669654	-0.551158153380521
53	1.8275862068965518	4.642973370696245	-0.07148618254516387	-0.9474140712700485	4.744181783306297	-0.12743346194273683	-1.114328717988891	4.236580889475601	-0.4937860629377384	-0.9771375930140737	3.8484542375427298	-0.8484684779004564	-0.8541626050984422	3.8873203604060578	-1.0279564093286406	-0.9132647078157982	4.025089882251816	-1.0971380482458222	-1.0172963257750094	3.7563324726993628	-0.8654566857289387	-0.7961597051316173	4.52533752458539	-0.024184761974429213	-0.762156587998988	3.8904983074273187	-0.3188835926471567	-0.5773544767980747	3.4447188470412673	-0.543212243433582	-0.46762937336999477	3.2824962506857864	-0.5936730026717397	-0.40297137525726	3.2115892165497057	-0.5407793915659602	-0.3335591301660756	3.4412061086655044	-0.5896237222518776	-0.49254186089330243	5.57806500288323	0.5464490172824922	-1.2174487341062903	5.979424830820025	0.849659702275063	-1.3862478197194437	5.799112796273043	0.6828472584562609	-1.3639891639646589	5.513225902022754	0.35294490008050505	-1.451094149297817	5.541073549594196	0.11296816968315376	-1.7830077614958528	5.786533920718841	0.2819212094810038	-1.9456866108005175	5.300505242540403	0.476576645579932	-0.8548509745565745	4.869392948075245	0.32838269040403334	-0.47125635011493394	5.080067897295539	0.43008950357228803	-0.5525383572571402
54	1.8620689655172413	4.632223638807423	-0.07727855917066952	-0.9436711344796895	4.743517505201149	-0.12883103531764112	-1.1151419246373921	4.21583272377192	-0.4964839946966641	-0.9628080796182855	3.862007462636173	-0.8654587300477664	-0.8677176230069404	3.866876494230787	-1.0329928454551642	-0.8994662053502055	4.00670300415916	-1.1036332388494547	-1.004312764479506	3.770161596047934	-0.8830607075942088	-0.8094712706966097	4.52305490119922	-0.024789497204483053	-0.7606815216539439	3.8749014966876207	-0.3243154934578923	-0.5714969212050259	3.452765440011812	-0.5400695222555132	-0.4704614802395303	3.293213038862248	-0.6014670421368733	-0.41310528246172096	3.2099331856972317	-0.5406882763993803	-0.332602962535556	3.4374498659006223	-0.5795288857218774	-0.48472426648387995	5.585812103066103	0.5478283510658458	-1.2290870757552705	5.98622301417346	0.8554290691135434	-1.3886842019692514	5.795884565502147	0.6802283826139811	-1.3629156363241743	5.5084100366675885	0.34840405493216314	-1.450577616614751	5.552098075497859	0.11000290107184608	-1.800273512967925	5.799859222706934	0.29082440815791116	-1.955561011153756	5.298930234245874	0.4696005891411515	-0.8698478384066439	4.8720323752032835	0.32808164694364156	-0.4770031311105181	5.06988703718509	0.42821833685549965	-0.537579928588431
55	1.896551724137931	4.6282486972661365	-0.07961993787354574	-0.942539682228578	4.74092675860057	-0.1318506709762474	-1.115728644869002	4.209849955386791	-0.5031106028754693	-0.9623901294945744	3.863489685730912	-0.8726051105692957	-0.8704555188257111	3.8491946675421644	-1.0378978062687008	-0.88760235870902	4.011617668649248	-1.1227155704964336	-1.0087625158562388	3.792371072959004	-0.8953960346169539	-0.8271156699052221	4.5178547103244435	-0.026502068527935244	-0.7578252576996635	3.873003766535694	-0.32442327041935914	-0.5702365059263059	3.4471388463692607	-0.5420406591626633	-0.46834098187821405	3.2743303852148617	-0.5963281490648806	-0.39978956296932605	3.190912627942304	-0.5353015568536097	-0.3189840681861423	3.4319041033258175	-0.5819587887869735	-0.48279680852415396	5.594226346628401	0.5496709812171796	-1.2410167668884173	5.98858497180015	0.8536560303034226	-1.3988447298711233	5.8028039573274155	0.6855899959001075	-1.3657676109633843	5.517446310693784	0.3476894940001092	-1.465323732549394	5.564131724936728	0.10589419700351745	-1.8199278969772055	5.800983894289514	0.2950633629102195	-1.9526349355140766	5.291717279955876	0.46628213698280435	-0.8646683803458295	4.873134053671061	0.3275281329767479	-0.48072534591066485	5.048194943149893	0.42084110091816773	-0.5172685896900295
56	1.9310344827586208	4.625679114298685	-0.08143771671687523	-0.9421846632981746	4.739220688747824	-0.1340934309697562	-1.1163780456388113	4.193839697058751	-0.49112269731336505	-0.9424687318650251	3.878362535270557	-0.8905009731869366	-0.8848057266052884	3.8121741254080024	-1.024281700323629	-0.8606392610318236	3.993273682897162	-1.1292895837735242	-0.9956777488072134	3.842137096358654	-0.9352005445922078	-0.8688235909456987	4.524407440386512	-0.023336281006003278	-0.7599305458758726	3.8664148460108887	-0.32689218603141995	-0.5679502843747056	3.447601803500127	-0.5423100862933149	-0.4687832089072086	3.29390852655527	-0.6015179716430796	-0.4135247051855102	3.2094424646556265	-0.5398670970654909	-0.3318324918197162	3.440312080339391	-0.5791965804125999	-0.48623607400719593	5.596676972234678	0.5512858757043353	-1.2422582371327877	5.992997516917737	0.8572217910399496	-1.4009142557639374	5.8000493857279345	0.6917497295383185	-1.346573622149936	5.524392292032427	0.3456057050459035	-1.4788927223520212	5.566083636574177	0.09451217988728725	-1.8334127282510195	5.814345129123724	0.3128253899271149	-1.952976423128457	5.295403150881224	0.46548327890808827	-0.8736555378910444	4.874108536820393	0.3260439181669565	-0.48707466427979634	5.05686121299025	0.4285873408784612	-0.508796775837575
